# xmcd CD database file
#
# Track frame offsets:
#	150
#	14710
#	33962
#	56827
#	77232
#	99870
#	123610
#	128527
#	150162
#	175435
#	198717
#	222962
#	244452
#	263527
#
# Disc length: 3611 seconds
#
# Revision: 0
# Processed by: cddbd v1.5PL3 Copyright (c) Steve Scherf et al.
# Submitted via: CDex 1.51
#
DISCID=c00e190e
DTITLE=K DUB SHINE - 現在時刻
DYEAR=1997
DGENRE=Hip-Hop
TTITLE0=プロローグ
TTITLE1=ラストエンペラー
TTITLE2=機能\停止Remix(宣戦布告Version)
TTITLE3=一目瞭然
TTITLE4=パラレル・ワールド
TTITLE5=理由なき犯行 (中学生日記)
TTITLE6=インタールード
TTITLE7=組織犯罪
TTITLE8=長すぎる冬眠
TTITLE9=独り言
TTITLE10=戦争を知らない子供達
TTITLE11=陽はまた昇る
TTITLE12=エピローグ
TTITLE13=Track14
EXTD=YEAR: 1997
EXTT0=
EXTT1=
EXTT2=
EXTT3=
EXTT4=
EXTT5=
EXTT6=
EXTT7=
EXTT8=
EXTT9=
EXTT10=
EXTT11=
EXTT12=
EXTT13=
PLAYORDER=
